<svg xmlns="http://www.w3.org/2000/svg" width="16" height="16" fill="white" class="bi bi-notion" viewBox="0 0 16 16">
  <path class="st0" d="M9.9,0.5L1.5,1.1c-0.7,0.1-0.9,0.5-0.9,1v9.2c0,0.4,0.1,0.8,0.5,1.2l2,2.6c0.3,0.4,0.6,0.5,1.2,0.5l9.7-0.6
	c0.8-0.1,1.1-0.4,1.1-1.1V3.5c0-0.3-0.1-0.4-0.5-0.7l-2.7-1.9C11.2,0.4,10.9,0.4,9.9,0.5L9.9,0.5z M4.5,3.4c-0.8,0.1-1,0.1-1.4-0.3
	L2,2.2C1.8,2,1.9,1.9,2.2,1.9l8.1-0.6c0.7-0.1,1,0.2,1.3,0.4l1.4,1c0.1,0,0.2,0.2,0,0.2L4.6,3.4L4.5,3.4L4.5,3.4z M3.6,13.8V5
	c0-0.4,0.1-0.6,0.5-0.6l9.6-0.6c0.3,0,0.5,0.2,0.5,0.6v8.7c0,0.4-0.1,0.7-0.6,0.7l-9.2,0.5C3.8,14.5,3.6,14.3,3.6,13.8L3.6,13.8z
	 M12.6,5.5c0.1,0.3,0,0.5-0.3,0.6l-0.4,0.1v6.5c-0.4,0.2-0.7,0.3-1,0.3c-0.5,0-0.6-0.1-0.9-0.6L7.1,7.8v4.4L8,12.4
	c0,0,0,0.5-0.7,0.5l-2,0.1c-0.1-0.1,0-0.4,0.2-0.5L6,12.5V6.6L5.2,6.6C5.2,6.3,5.3,5.9,5.7,5.9l2.2-0.1l3,4.6V6.3l-0.8-0.1
	c-0.1-0.3,0.2-0.6,0.5-0.6L12.6,5.5L12.6,5.5z"/>
</svg>