<svg xmlns="http://www.w3.org/2000/svg" width="16" height="16" fill="white" class="bi bi-lattes" viewBox="0 0 16 16">
  <path class="st0" d="M3.7,14.3C2.1,11,1.1,9,1.1,8.9c0-0.1,0.1-0.1,1.1,0.1c1.7,0.3,2.6,0.4,4.1,0.4c2,0,3.7-0.3,4.9-1
	c0.7-0.3,1.1-0.6,1.4-1c0.4-0.5,0.5-0.8,0.5-1.4c0-0.6-0.1-0.8-0.4-1.5c-0.1-0.3-0.2-0.6-0.2-0.7c0-0.2,0-0.2,0.1-0.2
	c0.3,0,1.7,1.3,2.2,2.1c0.9,1.4,0.9,2.9,0.2,4.3c-0.5,0.9-1,1.5-1.8,2.2c-1.4,1.2-3,2-5.3,2.6c-1.2,0.3-3.2,0.8-3.6,0.8
	C4.4,15.6,4.2,15.3,3.7,14.3L3.7,14.3z M4.2,9C2.6,8.8,1.3,8.6,1.2,8.6C1.2,8.5,0.9,7.7,0.8,7c0-0.2-0.1-0.6-0.1-1
	c-0.1-1.7,0.2-2.9,1.2-4c1.7-1.8,5.3-2,9.4-0.6c0.7,0.3,1,0.4,0.9,0.5c-0.1,0.1-0.8,0.1-1.9,0C8.5,1.9,7.1,2.1,6.4,2.7
	C5.4,3.6,5.5,5.6,6.9,8.4C7.1,8.7,7.2,9,7.2,9.1c0.1,0.1,0,0.3-0.1,0.3C7.1,9.3,5.7,9.2,4.2,9z M9.4,7.4c-1.3-0.2-2.4-1-2.7-1.9
	c-0.2-0.4-0.2-1,0-1.3c0.2-0.3,0.6-0.7,1-0.8c0.6-0.2,1.8-0.1,2.6,0.2c0.8,0.4,1.5,1,1.7,1.5c0.3,0.7,0.1,1.6-0.7,2
	C10.9,7.4,10,7.5,9.4,7.4L9.4,7.4z"/>
</svg>
